<svg width="17" height="17" viewBox="0 0 17 17" fill="none" xmlns="http://www.w3.org/2000/svg">
<path d="M8.5 17C3.81083 17 0 13.1892 0 8.5C0 3.81083 3.81083 0 8.5 0C13.1892 0 17 3.81083 17 8.5C17 13.1892 13.1892 17 8.5 17ZM8.5 0.708333C4.2075 0.708333 0.708333 4.2075 0.708333 8.5C0.708333 12.7925 4.2075 16.2917 8.5 16.2917C12.7925 16.2917 16.2917 12.7925 16.2917 8.5C16.2917 4.2075 12.7925 0.708333 8.5 0.708333Z" fill="#565472"/>
<path d="M8.49931 17C5.76514 17 3.62598 13.26 3.62598 8.5C3.62598 3.74 5.76514 0 8.49931 0C11.2335 0 13.3726 3.74 13.3726 8.5C13.3726 13.26 11.2335 17 8.49931 17ZM8.49931 0.708333C6.20431 0.708333 4.32014 4.2075 4.32014 8.5C4.32014 12.7925 6.19014 16.2917 8.49931 16.2917C10.8085 16.2917 12.6785 12.7925 12.6785 8.5C12.6785 4.2075 10.7943 0.708333 8.49931 0.708333Z" fill="#565472"/>
<path d="M15.2718 3.62671H1.72852V4.33504H15.2718V3.62671Z" fill="#565472"/>
<path d="M15.2718 12.6792H1.72852V13.3875H15.2718V12.6792Z" fill="#565472"/>
<path d="M16.6462 8.14575H0.354492V8.85409H16.6462V8.14575Z" fill="#565472"/>
<path d="M8.85384 0.354248H8.14551V16.6459H8.85384V0.354248Z" fill="#565472"/>
</svg>
