<svg width="17" height="18" viewBox="0 0 17 18" fill="none" xmlns="http://www.w3.org/2000/svg">
<path d="M14.875 1.2085H2.125C1.56141 1.2085 1.02091 1.43238 0.622398 1.83089C0.223883 2.22941 0 2.76991 0 3.3335L0 16.7918H17V3.3335C17 2.76991 16.7761 2.22941 16.3776 1.83089C15.9791 1.43238 15.4386 1.2085 14.875 1.2085ZM2.125 2.62516H14.875C15.0629 2.62516 15.243 2.69979 15.3759 2.83263C15.5087 2.96547 15.5833 3.14563 15.5833 3.3335V3.80595L10.0031 9.38691C9.60389 9.78451 9.06342 10.0077 8.5 10.0077C7.93658 10.0077 7.39611 9.78451 6.99692 9.38691L1.41667 3.80595V3.3335C1.41667 3.14563 1.49129 2.96547 1.62413 2.83263C1.75697 2.69979 1.93714 2.62516 2.125 2.62516ZM1.41667 15.3752V5.81266L5.99533 10.3885C6.66019 11.0517 7.56093 11.4241 8.5 11.4241C9.43907 11.4241 10.3398 11.0517 11.0047 10.3885L15.5833 5.81266V15.3752H1.41667Z" fill="#565472"/>
</svg>
