<svg width="31" height="31" viewBox="0 0 31 31" fill="none" xmlns="http://www.w3.org/2000/svg">
<g clip-path="url(#clip0_656_3182)">
<g clip-path="url(#clip1_656_3182)">
<g clip-path="url(#clip2_656_3182)">
<g clip-path="url(#clip3_656_3182)">
<path d="M14.1508 -0.546944C14.9433 -1.00058 15.9757 -1.00263 16.7674 -0.546944C20.7512 1.70405 24.736 3.9515 28.719 6.20386C29.4682 6.62585 29.9693 7.45958 29.9617 8.3228V21.8657C29.9672 22.7646 29.4167 23.6182 28.6262 24.0307C24.6557 26.2692 20.6871 28.5106 16.7172 30.7491C15.9084 31.2116 14.8553 31.176 14.0717 30.6756C12.8813 29.9855 11.6889 29.2989 10.4984 28.6094C10.2551 28.4645 9.9809 28.349 9.80912 28.1132C9.96097 27.9084 10.2325 27.883 10.4531 27.7937C10.95 27.6356 11.4064 27.382 11.8628 27.1359C11.9783 27.0568 12.1192 27.0871 12.2298 27.1579C13.2478 27.7415 14.2567 28.342 15.278 28.9202C15.4959 29.0459 15.7165 28.879 15.9028 28.7751C19.7991 26.5729 23.7003 24.3792 27.596 22.1763C27.7403 22.1069 27.8201 21.9536 27.8084 21.7955C27.8111 17.328 27.8091 12.8597 27.8097 8.39224C27.8263 8.21284 27.7224 8.04789 27.5602 7.97445C23.6034 5.74613 19.6487 3.51438 15.6925 1.28548C15.6239 1.23835 15.5428 1.21306 15.4596 1.21294C15.3764 1.21282 15.2951 1.23786 15.2264 1.28478C11.2703 3.51438 7.31623 5.74817 3.36009 7.97639C3.19845 8.04993 3.08997 8.21214 3.1092 8.39224C3.10989 12.8597 3.1092 17.328 3.1092 21.7962C3.10234 21.8733 3.11929 21.9507 3.15775 22.0179C3.19622 22.0852 3.25436 22.139 3.32436 22.1722C4.38006 22.7709 5.43715 23.3653 6.49354 23.9619C7.08867 24.2822 7.81938 24.4726 8.47508 24.2272C9.05371 24.0196 9.4593 23.4292 9.44826 22.8148C9.45372 18.3734 9.44553 13.9312 9.45236 9.49053C9.43791 9.29336 9.62493 9.13046 9.81663 9.14901C10.3239 9.14561 10.8318 9.14219 11.3391 9.15039C11.5508 9.14561 11.6965 9.35791 11.6703 9.55655C11.6683 14.0261 11.6758 18.4957 11.667 22.9652C11.6683 24.1564 11.1789 25.4526 10.0771 26.0355C8.71971 26.7386 7.042 26.5895 5.70101 25.9152C4.54011 25.3358 3.43227 24.6519 2.29198 24.0312C1.49956 23.621 0.951673 22.7639 0.957251 21.8658V8.3228C0.948941 7.44171 1.46997 6.59284 2.24245 6.177C6.21236 3.93659 10.1816 1.69449 14.1508 -0.546944Z" fill="#0CBFAA"/>
<path d="M17.6145 8.83418C19.346 8.72273 21.1996 8.76816 22.7576 9.62113C23.9639 10.2748 24.6327 11.6467 24.654 12.9868C24.6204 13.1675 24.4314 13.2673 24.2588 13.2548C23.7565 13.2542 23.254 13.2617 22.7517 13.2515C22.5386 13.2597 22.4146 13.0632 22.3879 12.8747C22.2436 12.2335 21.8939 11.5984 21.2904 11.2892C20.3638 10.8253 19.2896 10.8486 18.2792 10.8582C17.5417 10.8974 16.7486 10.9613 16.1237 11.3951C15.644 11.7236 15.4983 12.3868 15.6695 12.9209C15.8309 13.3044 16.2736 13.4281 16.6359 13.5422C18.7226 14.0879 20.9336 14.0336 22.9804 14.7518C23.8278 15.0446 24.6567 15.6138 24.9468 16.501C25.3263 17.6902 25.1599 19.1116 24.3139 20.0661C23.6278 20.8517 22.6286 21.2793 21.6319 21.5115C20.3061 21.8071 18.9301 21.8147 17.5837 21.6834C16.3177 21.5391 15.0001 21.2065 14.0226 20.3438C13.1869 19.6181 12.7787 18.4873 12.8192 17.396C12.8288 17.2117 13.0124 17.0832 13.1889 17.0983C13.6948 17.0942 14.2007 17.0929 14.7067 17.099C14.9087 17.0846 15.0585 17.2591 15.0688 17.4496C15.1621 18.0605 15.3918 18.7018 15.9246 19.0641C16.9527 19.7273 18.2429 19.6819 19.4201 19.7005C20.3954 19.6572 21.4904 19.6441 22.2862 18.9995C22.7062 18.6318 22.8306 18.0166 22.7171 17.4874C22.5942 17.0407 22.1268 16.8324 21.7254 16.6963C19.6655 16.0447 17.4297 16.2811 15.3897 15.5442C14.5616 15.2515 13.7608 14.6982 13.4426 13.8473C12.9987 12.6433 13.202 11.1539 14.1368 10.2314C15.0481 9.31389 16.3637 8.96066 17.6145 8.83418Z" fill="#0CBFAA"/>
</g>
</g>
</g>
</g>
<defs>
<clipPath id="clip0_656_3182">
<rect width="30.2885" height="30.2885" fill="white" transform="translate(0.210938 0.192261)"/>
</clipPath>
<clipPath id="clip1_656_3182">
<rect width="30.2885" height="32.449" fill="white" transform="translate(0.210999 -0.887939)"/>
</clipPath>
<clipPath id="clip2_656_3182">
<rect width="30.2885" height="32.449" fill="white" transform="translate(0.210999 -0.887939)"/>
</clipPath>
<clipPath id="clip3_656_3182">
<rect width="30.2858" height="32.449" fill="white" transform="translate(0.210999 -0.887939)"/>
</clipPath>
</defs>
</svg>
