<svg width="17" height="18" viewBox="0 0 17 18" fill="none" xmlns="http://www.w3.org/2000/svg">
<g clip-path="url(#clip0_6953_1065)">
<path d="M13.4587 6.16667V5.45833C13.4587 4.1433 12.9363 2.88213 12.0064 1.95226C11.0765 1.02239 9.81536 0.5 8.50033 0.5C7.18529 0.5 5.92412 1.02239 4.99425 1.95226C4.06439 2.88213 3.54199 4.1433 3.54199 5.45833V6.16667H1.41699V15.375C1.41699 15.9386 1.64088 16.4791 2.03939 16.8776C2.43791 17.2761 2.97841 17.5 3.54199 17.5H13.4587C14.0222 17.5 14.5627 17.2761 14.9613 16.8776C15.3598 16.4791 15.5837 15.9386 15.5837 15.375V6.16667H13.4587ZM4.95866 5.45833C4.95866 4.51902 5.3318 3.61819 5.99599 2.954C6.66018 2.28981 7.56102 1.91667 8.50033 1.91667C9.43963 1.91667 10.3405 2.28981 11.0047 2.954C11.6689 3.61819 12.042 4.51902 12.042 5.45833V6.16667H4.95866V5.45833ZM14.167 15.375C14.167 15.5629 14.0924 15.743 13.9595 15.8759C13.8267 16.0087 13.6465 16.0833 13.4587 16.0833H3.54199C3.35413 16.0833 3.17396 16.0087 3.04113 15.8759C2.90829 15.743 2.83366 15.5629 2.83366 15.375V7.58333H14.167V15.375Z" fill="#565472"/>
<path d="M9.20867 10.4164H7.79199V13.2497H9.20867V10.4164Z" fill="#565472"/>
</g>
<defs>
<clipPath id="clip0_6953_1065">
<rect width="17" height="17" fill="white" transform="translate(0 0.5)"/>
</clipPath>
</defs>
</svg>
