<svg width="147" height="37" viewBox="0 0 147 37" fill="none" xmlns="http://www.w3.org/2000/svg">
<path d="M17.6854 28.1522V8.71353C22.1092 8.71353 24.1368 11.7958 24.5976 13.6715C24.7872 14.4433 24.5976 17.9902 24.5976 22.4918C24.5976 26.9934 19.9895 27.9248 17.6854 28.1522Z" fill="#02BFA6"/>
<path d="M7.08497 28.1803V6.43344C7.08497 6.29654 7.0909 6.16014 7.0875 6.02327C7.07293 5.4358 6.87807 3.68127 5.18413 2.03864C2.67692 -0.392633 0 0.0277574 0 0.0277574V22.3152C0 26.5712 5.01132 28.1803 7.08497 28.1803Z" fill="#02BFA6"/>
<path d="M15.9519 37V15.2532C15.9519 15.1163 15.9578 14.9799 15.9545 14.843C15.9399 14.2555 15.745 12.501 14.0511 10.8584C11.5439 8.42711 8.86695 8.84751 8.86695 8.84751V31.1349C8.86695 35.3909 13.8783 37 15.9519 37Z" fill="#02BFA6"/>
<path d="M39.8167 28.0839V9.28106H43.5678V28.0839H39.8167ZM51.9801 28.0839V9.28106H55.7311V28.0839H51.9801ZM42.1887 19.9797V16.7701H53.0282V19.9797H42.1887Z" fill="#02BFA6"/>
<path d="M59.3085 28.0839V15.1653H62.9493V28.0839H59.3085ZM61.1289 13.0791C60.5405 13.0791 60.0532 12.8918 59.6671 12.5174C59.2809 12.1251 59.0879 11.6437 59.0879 11.0731C59.0879 10.5203 59.2809 10.0478 59.6671 9.65551C60.0532 9.26323 60.5405 9.06708 61.1289 9.06708C61.7357 9.06708 62.2229 9.26323 62.5907 9.65551C62.9768 10.0478 63.1699 10.5203 63.1699 11.0731C63.1699 11.6437 62.9768 12.1251 62.5907 12.5174C62.2229 12.8918 61.7357 13.0791 61.1289 13.0791Z" fill="#02BFA6"/>
<path d="M66.15 28.0839V15.1653H69.7631V28.0839H66.15ZM69.7631 20.9426L68.3565 20.0332C68.522 18.4462 69 17.198 69.7907 16.2887C70.5814 15.3614 71.7214 14.8978 73.2108 14.8978C73.8543 14.8978 74.4336 15.0048 74.9484 15.2188C75.4633 15.4149 75.9321 15.7448 76.3551 16.2084L74.0934 18.7226C73.8911 18.5086 73.6429 18.3481 73.3487 18.2412C73.0729 18.1342 72.7511 18.0807 72.3833 18.0807C71.6111 18.0807 70.9767 18.3214 70.4802 18.8028C70.0022 19.2664 69.7631 19.9797 69.7631 20.9426Z" fill="#02BFA6"/>
<path d="M83.6184 28.3514C82.221 28.3514 80.9798 28.0661 79.8949 27.4955C78.8101 26.907 77.9459 26.1046 77.3023 25.0883C76.6771 24.0719 76.3645 22.9129 76.3645 21.6112C76.3645 20.3274 76.6679 19.1862 77.2747 18.1877C77.8999 17.1713 78.7457 16.3689 79.8122 15.7805C80.8787 15.1742 82.0647 14.8711 83.3702 14.8711C84.6573 14.8711 85.7881 15.1564 86.7627 15.727C87.7556 16.2797 88.5279 17.0465 89.0795 18.0272C89.6495 18.9901 89.9345 20.0867 89.9345 21.317C89.9345 21.5488 89.9161 21.7895 89.8794 22.0392C89.861 22.271 89.815 22.5384 89.7415 22.8416L78.5435 22.8683V20.2471L88.059 20.2204L86.5972 21.317C86.5604 20.5503 86.4133 19.9084 86.1559 19.3913C85.9169 18.8742 85.5583 18.4819 85.0802 18.2144C84.6205 17.9291 84.0505 17.7865 83.3702 17.7865C82.6531 17.7865 82.0279 17.9469 81.4947 18.2679C80.9614 18.571 80.5477 19.0079 80.2535 19.5785C79.9777 20.1312 79.8398 20.791 79.8398 21.5577C79.8398 22.3423 79.9869 23.0288 80.2811 23.6172C80.5937 24.1878 81.035 24.6336 81.605 24.9545C82.175 25.2577 82.8369 25.4092 83.5908 25.4092C84.2712 25.4092 84.8872 25.3022 85.4388 25.0883C85.9904 24.8565 86.4685 24.5177 86.873 24.0719L88.9968 26.1314C88.3532 26.8625 87.5625 27.4152 86.6248 27.7897C85.7054 28.1641 84.7033 28.3514 83.6184 28.3514Z" fill="#02BFA6"/>
<path d="M95.3133 21.103V18.1342H99.8091C100.397 18.1342 100.931 18.0183 101.409 17.7865C101.887 17.5547 102.264 17.2248 102.54 16.7968C102.815 16.3511 102.953 15.8161 102.953 15.192C102.953 14.5858 102.815 14.0598 102.54 13.614C102.264 13.1682 101.887 12.8294 101.409 12.5976C100.931 12.3658 100.397 12.2499 99.8091 12.2499H95.3133V9.28106H100.195C101.427 9.28106 102.53 9.52178 103.505 10.0032C104.498 10.4847 105.279 11.1711 105.849 12.0627C106.419 12.9364 106.704 13.9795 106.704 15.192C106.704 16.4046 106.419 17.4566 105.849 18.3481C105.279 19.2219 104.498 19.8994 103.505 20.3809C102.53 20.8623 101.427 21.103 100.195 21.103H95.3133ZM92.5552 28.0839V9.28106H96.3062V28.0839H92.5552Z" fill="#02BFA6"/>
<path d="M114.117 28.3514C112.903 28.3514 111.809 28.0571 110.835 27.4687C109.86 26.8803 109.097 26.0779 108.545 25.0615C107.994 24.0452 107.718 22.904 107.718 21.638C107.718 20.3541 107.994 19.204 108.545 18.1877C109.097 17.1713 109.86 16.3689 110.835 15.7805C111.809 15.192 112.903 14.8978 114.117 14.8978C115.073 14.8978 115.928 15.0851 116.682 15.4595C117.436 15.834 118.033 16.36 118.475 17.0376C118.934 17.6973 119.183 18.4462 119.219 19.2843V23.9382C119.183 24.7941 118.934 25.5519 118.475 26.2116C118.033 26.8714 117.436 27.3974 116.682 27.7897C115.928 28.1641 115.073 28.3514 114.117 28.3514ZM114.779 25.115C115.79 25.115 116.608 24.7941 117.234 24.1521C117.859 23.4924 118.171 22.6454 118.171 21.6112C118.171 20.9336 118.024 20.3363 117.73 19.8192C117.454 19.2843 117.059 18.8742 116.544 18.5889C116.048 18.2857 115.459 18.1342 114.779 18.1342C114.117 18.1342 113.528 18.2857 113.014 18.5889C112.517 18.8742 112.122 19.2843 111.828 19.8192C111.552 20.3363 111.414 20.9336 111.414 21.6112C111.414 22.3066 111.552 22.9218 111.828 23.4567C112.122 23.9738 112.517 24.3839 113.014 24.6871C113.528 24.9724 114.117 25.115 114.779 25.115ZM117.978 28.0839V24.6068L118.557 21.4507L117.978 18.3481V15.1653H121.564V28.0839H117.978Z" fill="#02BFA6"/>
<path d="M129.339 28.3781C128.585 28.3781 127.84 28.28 127.105 28.0839C126.388 27.8877 125.726 27.6203 125.119 27.2815C124.512 26.9249 123.988 26.4969 123.547 25.9977L125.698 23.8847C126.158 24.3839 126.691 24.7584 127.298 25.008C127.904 25.2577 128.576 25.3825 129.311 25.3825C129.9 25.3825 130.341 25.3022 130.635 25.1418C130.948 24.9813 131.104 24.7406 131.104 24.4196C131.104 24.063 130.938 23.7866 130.607 23.5905C130.295 23.3943 129.881 23.2338 129.366 23.109C128.851 22.9664 128.309 22.8148 127.739 22.6543C127.187 22.476 126.654 22.2531 126.139 21.9857C125.624 21.7004 125.202 21.317 124.871 20.8356C124.558 20.3363 124.402 19.6944 124.402 18.9098C124.402 18.0896 124.604 17.3763 125.008 16.7701C125.431 16.1638 126.029 15.6913 126.801 15.3525C127.574 15.0137 128.484 14.8443 129.532 14.8443C130.635 14.8443 131.628 15.0316 132.511 15.406C133.412 15.7805 134.156 16.3421 134.745 17.0911L132.566 19.204C132.161 18.7226 131.701 18.3749 131.187 18.1609C130.69 17.9469 130.148 17.84 129.559 17.84C129.026 17.84 128.612 17.9202 128.318 18.0807C128.042 18.2412 127.904 18.464 127.904 18.7493C127.904 19.0703 128.061 19.3199 128.373 19.4982C128.704 19.6766 129.127 19.837 129.642 19.9797C130.157 20.1045 130.69 20.2561 131.242 20.4344C131.812 20.5949 132.345 20.8267 132.842 21.1298C133.356 21.4329 133.77 21.8341 134.083 22.3334C134.414 22.8326 134.579 23.4746 134.579 24.2591C134.579 25.5251 134.11 26.5326 133.173 27.2815C132.235 28.0126 130.957 28.3781 129.339 28.3781Z" fill="#02BFA6"/>
<path d="M141.594 28.3781C140.84 28.3781 140.095 28.28 139.36 28.0839C138.643 27.8877 137.981 27.6203 137.374 27.2815C136.767 26.9249 136.243 26.4969 135.802 25.9977L137.953 23.8847C138.413 24.3839 138.946 24.7584 139.553 25.008C140.16 25.2577 140.831 25.3825 141.566 25.3825C142.155 25.3825 142.596 25.3022 142.89 25.1418C143.203 24.9813 143.359 24.7406 143.359 24.4196C143.359 24.063 143.194 23.7866 142.863 23.5905C142.55 23.3943 142.136 23.2338 141.622 23.109C141.107 22.9664 140.564 22.8148 139.994 22.6543C139.443 22.476 138.909 22.2531 138.395 21.9857C137.88 21.7004 137.457 21.317 137.126 20.8356C136.813 20.3363 136.657 19.6944 136.657 18.9098C136.657 18.0896 136.859 17.3763 137.264 16.7701C137.687 16.1638 138.284 15.6913 139.057 15.3525C139.829 15.0137 140.739 14.8443 141.787 14.8443C142.89 14.8443 143.883 15.0316 144.766 15.406C145.667 15.7805 146.412 16.3421 147 17.0911L144.821 19.204C144.417 18.7226 143.957 18.3749 143.442 18.1609C142.946 17.9469 142.403 17.84 141.815 17.84C141.281 17.84 140.868 17.9202 140.574 18.0807C140.298 18.2412 140.16 18.464 140.16 18.7493C140.16 19.0703 140.316 19.3199 140.629 19.4982C140.96 19.6766 141.383 19.837 141.897 19.9797C142.412 20.1045 142.946 20.2561 143.497 20.4344C144.067 20.5949 144.6 20.8267 145.097 21.1298C145.612 21.4329 146.025 21.8341 146.338 22.3334C146.669 22.8326 146.835 23.4746 146.835 24.2591C146.835 25.5251 146.366 26.5326 145.428 27.2815C144.49 28.0126 143.212 28.3781 141.594 28.3781Z" fill="#02BFA6"/>
</svg>
