<svg width="17" height="18" viewBox="0 0 17 18" fill="none" xmlns="http://www.w3.org/2000/svg">
<g clip-path="url(#clip0_7272_928)">
<path d="M14.875 17.5004H13.4583V13.9283C13.4578 13.373 13.2369 12.8406 12.8442 12.4479C12.4516 12.0552 11.9191 11.8343 11.3638 11.8338H5.63621C5.08087 11.8343 4.54845 12.0552 4.15577 12.4479C3.76308 12.8406 3.54223 13.373 3.54167 13.9283V17.5004H2.125V13.9283C2.12612 12.9974 2.49642 12.105 3.15465 11.4468C3.81289 10.7885 4.70532 10.4182 5.63621 10.4171H11.3638C12.2947 10.4182 13.1871 10.7885 13.8453 11.4468C14.5036 12.105 14.8739 12.9974 14.875 13.9283V17.5004Z" fill="#565472"/>
<path d="M8.49997 9C7.6594 9 6.83771 8.75074 6.1388 8.28375C5.43989 7.81675 4.89516 7.15299 4.57348 6.37641C4.25181 5.59982 4.16765 4.74529 4.33163 3.92087C4.49562 3.09645 4.90039 2.33917 5.49477 1.7448C6.08914 1.15042 6.84642 0.745652 7.67084 0.581664C8.49526 0.417677 9.34979 0.501841 10.1264 0.823514C10.903 1.14519 11.5667 1.68992 12.0337 2.38883C12.5007 3.08774 12.75 3.90943 12.75 4.75C12.7488 5.87683 12.3007 6.95718 11.5039 7.75396C10.7071 8.55075 9.6268 8.99888 8.49997 9ZM8.49997 1.91667C7.93959 1.91667 7.3918 2.08284 6.92586 2.39417C6.45992 2.7055 6.09676 3.14801 5.88231 3.66573C5.66786 4.18346 5.61175 4.75314 5.72108 5.30276C5.8304 5.85237 6.10025 6.35722 6.4965 6.75347C6.89275 7.14972 7.3976 7.41957 7.94722 7.52889C8.49683 7.63822 9.06652 7.58211 9.58424 7.36766C10.102 7.15321 10.5445 6.79006 10.8558 6.32412C11.1671 5.85818 11.3333 5.31038 11.3333 4.75C11.3333 3.99856 11.0348 3.27789 10.5034 2.74653C9.97209 2.21518 9.25142 1.91667 8.49997 1.91667Z" fill="#565472"/>
</g>
<defs>
<clipPath id="clip0_7272_928">
<rect width="17" height="17" fill="white" transform="translate(0 0.5)"/>
</clipPath>
</defs>
</svg>
