<svg width="31" height="31" viewBox="0 0 31 31" fill="none" xmlns="http://www.w3.org/2000/svg">
<g clip-path="url(#clip0_656_3232)">
<g clip-path="url(#clip1_656_3232)">
<g clip-path="url(#clip2_656_3232)">
<mask id="mask0_656_3232" style="mask-type:luminance" maskUnits="userSpaceOnUse" x="0" y="0" width="31" height="31">
<path d="M30.4994 0.192261H0.210938V30.4807H30.4994V0.192261Z" fill="white"/>
</mask>
<g mask="url(#mask0_656_3232)">
<path d="M15.3552 0.192261C7.00466 0.192261 0.210938 6.98599 0.210938 15.3365C0.210938 23.687 7.00466 30.4807 15.3552 30.4807C23.7057 30.4807 30.4994 23.687 30.4994 15.3365C30.4994 6.98599 23.7057 0.192261 15.3552 0.192261ZM10.4313 3.12338C9.51849 4.36757 8.84036 5.84011 8.35523 7.28532C7.47336 6.96918 6.657 6.59105 5.92362 6.15601C7.19 4.85544 8.722 3.81504 10.4313 3.12338ZM4.64145 7.68759C5.58625 8.27703 6.65493 8.77916 7.81523 9.18527C7.43266 10.8023 7.20331 12.5461 7.14191 14.3487H2.22323C2.40732 11.8773 3.2767 9.59369 4.64145 7.68759ZM4.64139 22.9853C3.2767 21.0793 2.40726 18.7957 2.22317 16.3241H7.14179C7.2032 18.1269 7.43254 19.8707 7.81512 21.4876C6.65487 21.8938 5.58632 22.3959 4.64139 22.9853ZM5.92368 24.5169C6.65706 24.0819 7.47342 23.7037 8.35527 23.3876C8.84037 24.8326 9.51848 26.3053 10.4314 27.5495C8.72199 26.858 7.19 25.8175 5.92368 24.5169ZM14.3675 28.323C12.3279 27.5745 10.9529 24.893 10.249 22.8274C11.5411 22.5199 12.9286 22.3309 14.3675 22.2713V28.323ZM14.3675 20.2946C12.7464 20.3573 11.1768 20.5731 9.71116 20.929C9.37847 19.4901 9.1765 17.9363 9.11788 16.3241H14.3675V20.2946ZM14.3675 14.3488H9.11788C9.17644 12.7367 9.37841 11.1828 9.71116 9.74401C11.1768 10.0998 12.7464 10.3155 14.3675 10.3783V14.3488ZM14.3675 8.40168C12.9287 8.34205 11.5411 8.15304 10.249 7.8456C10.9524 5.78137 12.3273 3.09871 14.3675 2.34996V8.40168ZM26.0689 7.68765C27.4336 9.59363 28.3031 11.8773 28.4872 14.3488H23.5686C23.5071 12.5461 23.2778 10.8023 22.8952 9.18533C24.0555 8.77922 25.124 8.27709 26.0689 7.68765ZM24.7866 6.15607C24.0533 6.59111 23.237 6.96924 22.3551 7.28538C21.87 5.8403 21.1919 4.36776 20.279 3.12343C21.9883 3.81504 23.5203 4.85544 24.7866 6.15607ZM16.3428 2.34996C18.3824 3.09854 19.7574 5.78001 20.4613 7.8456C19.1692 8.1531 17.7818 8.34199 16.3428 8.40168V2.34996ZM16.3428 10.3784C17.964 10.3156 19.5335 10.0998 20.9991 9.74407C21.3319 11.1828 21.5339 12.7367 21.5924 14.3488H16.3428V10.3784ZM16.3428 16.3176H21.5924C21.5339 17.9298 21.3319 19.4901 20.9991 20.929C19.5335 20.5731 17.964 20.3573 16.3428 20.2946V16.3176ZM16.3428 28.323V22.2713C17.7816 22.3309 19.1692 22.5199 20.4613 22.8274C19.7579 24.8915 18.383 27.5742 16.3428 28.323ZM20.279 27.5496C21.1919 26.3054 21.87 24.8329 22.3551 23.3876C23.237 23.7037 24.0533 24.082 24.7868 24.5169C23.5203 25.8175 21.9883 26.858 20.279 27.5496ZM26.0689 22.9854C25.124 22.396 24.0555 21.8938 22.8951 21.4877C23.2777 19.8707 23.507 18.1204 23.5684 16.3177H28.487C28.303 18.7891 27.4336 21.0793 26.0689 22.9854Z" fill="#37B3F1"/>
</g>
</g>
</g>
</g>
<defs>
<clipPath id="clip0_656_3232">
<rect width="30.2885" height="30.2885" fill="white" transform="translate(0.210938 0.192261)"/>
</clipPath>
<clipPath id="clip1_656_3232">
<rect width="30.2885" height="30.2885" fill="white" transform="translate(0.210938 0.192261)"/>
</clipPath>
<clipPath id="clip2_656_3232">
<rect width="30.2885" height="30.2885" fill="white" transform="translate(0.210938 0.192261)"/>
</clipPath>
</defs>
</svg>
